<?xml version="1.0"?>
<svg xmlns="http://www.w3.org/2000/svg" version="1.2" baseProfile="tiny" width="800" height="646" viewBox="0 0 800 646" stroke-linecap="round" stroke-linejoin="round">
<polygon id="1801" title="ueang Chai Nat" points=" 716.3607 257.3264 711.3103 256.6247 706.6704 255.5125 703.6345 255.2977 695.8632 253.9981 691.4143 253.5208 686.698 253.1448 683.3852 252.3214 680.1965 251.1686 676.2726 250.1053 672.6638 249.517 669.1314 249.2437 665.5226 248.9656 661.637 248.3284 655.2691 246.4882 650.9729 246.5263 638.0462 244.3126 629.979 243.9355 624.203 242.297 615.6011 241.7087 603.0181 241.4569 594.4162 242.3841 590.2632 243.7732 586.7404 244.8747 583.1602 245.5251 579.7233 245.827 581.1649 249.406 580.0574 256.8765 580.0192 260.255 578.3962 263.7087 577.3652 272.8667 577.1074 276.8848 576.3054 282.977 575.4557 287.908 574.501 292.252 573.7182 296.8429 572.7157 301.8635 571.0259 305.7789 569.4984 308.2946 567.9327 311.3461 566.7202 313.9751 570.329 313.8868 569.8612 318.0421 571.1214 321.0315 572.9544 323.0854 575.5417 328.1775 573.069 329.0272 568.8874 330.0285 565.5555 331.4068 564.5817 333.9571 565.6605 336.7734 568.8683 339.9037 570.94 343.3573 572.6776 345.3324 573.3268 349.5629 574.6442 353.692 576.019 357.9106 570.6631 364.9802 563.8943 371.5223 554.1945 382.3976 551.254 385.3894 548.9913 387.6795 544.9625 387.479 541.1532 385.9658 538.2891 386.7153 533.2196 387.9278 530.5273 390.1689 528.9139 394.2372 529.4676 397.0655 526.1261 400.0656 523.6248 402.2817 520.9994 404.6232 517.2283 404.8976 512.6266 404.5337 508.6359 404.4716 504.0915 404.4465 501.0747 403.7078 497.1795 403.6195 492.7401 402.3951 489.179 402.0813 486.544 402.5443 484.4341 404.0587 481.1022 404.5981 477.7226 406.4884 476.7106 409.0267 475.5267 411.3312 472.6817 410.2643 468.9011 408.9635 464.4808 409.5769 458.1416 410.0411 455.4302 408.6138 450.924 410.6521 446.8378 413.1451 444.2983 414.434 441.8638 411.8049 438.1214 408.4515 435.5532 404.5718 432.2595 401.1182 429.4622 398.9761 426.5313 396.7767 423.944 395.0868 418.569 394.5128 418.0248 391.7692 415.8863 389.9923 412.4685 383.4239 412.3825 378.5919 412.4875 374.5893 409.7475 372.6119 408.1532 366.9063 410.0912 364.053 410.2153 359.0598 410.9409 356.333 412.1057 351.8781 412.3443 346.9363 415.9722 344.1211 417.6811 340.5672 417.5857 337.6494 418.8363 334.0955 420.2779 329.7564 420.6885 325.8098 423.2375 324.9363 424.4023 322.4946 421.6909 318.2904 419.5142 316.6172 420.6025 313.0001 424.0395 310.0083 424.4882 304.8397 423.7626 299.5578 423.0275 296.3679 424.2495 290.5633 425.166 286.1454 426.7986 281.4519 429.72 280.9148 433.5102 279.8885 434.2166 277.1473 436.0879 272.9812 439.2575 272.4788 442.3698 269.0395 441.1478 266.1587 443.2291 262.896 441.3483 259.2168 446.1027 256.0627 446.981 253.1448 447.6684 250.1184 445.9882 245.8867 443.4582 240.9843 441.2719 236.7024 439.3434 232.2117 437.3481 225.8427 435.9637 219.4974 435.515 214.7788 434.2739 211.4123 435.6296 206.9968 439.0474 203.6422 435.2382 200.8771 437.7395 196.7719 442.7899 192.3062 449.3392 187.3382 459.4209 182.8463 474.3047 182.8833 478.7345 180.1791 485.5034 180.5669 489.1886 179.8175 495.6806 179.1671 499.0125 178.654 504.0438 177.1276 510.4308 174.686 513.0753 173.637 519.806 172.81 525.1141 172.6835 529.4389 173.1716 533.0095 174.0726 535.0908 176.8889 538.0504 179.8056 540.3894 180.9178 542.7475 183.77 545.2871 188.4647 548.3135 191.9291 551.2635 193.3958 553.6407 195.7229 554.4045 199.889 554.2231 202.8784 551.7886 205.332 549.5546 209.01 547.0628 214.0043 551.7409 217.0439 556.2757 217.5833 560.0468 218.0451 565.3359 217.8458 570.4913 217.6728 577.222 216.1321 581.0503 215.6929 587.4659 214.5688 592.2395 213.3384 596.2397 211.5638 601.6242 215.2418 605.338 216.0056 610.6844 215.8445 617.1668 214.8051 621.3007 213.49 625.425 211.176 628.5851 209.0864 634.2465 205.1578 640.1657 202.4023 645.808 199.1873 648.2329 196.273 651.1734 192.8815 652.9874 190.3288 654.7249 187.3633 655.6796 184.8858 656.0902 181.4059 657.7609 179.0048 659.8326 174.8232 661.2742 172.6584 661.0355 168.6916 659.9949 166.2273 661.0737 162.1232 662.8972 159.8582 665.79 155.8031 665.895 152.8256 666.4774 148.8839 668.1672 144.9027 671.8714 146.7453 673.5708 149.3839 675.6903 151.8876 675.7475 154.414 675.3084 158.481 679.3659 158.9954 684.7886 162.4598 685.4951 167.5173 685.2278 170.7562 685.4951 176.0751 689.2184 180.0061 689.0943 184.6602 689.6862 187.1986 690.2686 191.2787 691.4143 195.2097 692.579 197.7624 694.0206 201.7912 694.5361 206.3332 693.5242 209.3871 693.5623 211.8908 696.5315 217.0069 699.0519 221.4987 699.1474 225.555 702.8707 228.9347 706.4795 229.3333 708.8281 230.5708 710.5752 233.4636 712.3987 240.3458 714.69 249.9418 716.3607 257.3264 "/> 

<polygon id="1802" title="anorom" points=" 613.9113 73.9645 615.5725 75.6794 618.1502 76.88 620.9952 81.1726 621.4344 83.9985 625.425 86.606 628.3082 88.9701 631.6497 91.7841 634.7907 95.375 637.3684 98.2045 640.9772 102.6821 644.3568 106.8267 647.3546 110.8042 650.6388 114.8224 653.3788 118.1376 655.0877 120.4527 656.8921 123.645 657.4936 124.6821 659.3934 128.125 661.3315 131.0392 662.9449 133.0155 664.8162 134.8688 666.9643 138.8738 668.1672 144.9027 666.4774 148.8839 665.895 152.8256 665.79 155.8031 662.8972 159.8582 661.0737 162.1232 659.9949 166.2273 661.0355 168.6916 661.2742 172.6584 659.8326 174.8232 657.7609 179.0048 656.0902 181.4059 655.6796 184.8858 654.7249 187.3633 652.9874 190.3288 651.1734 192.8815 648.2329 196.273 645.808 199.1873 640.1657 202.4023 634.2465 205.1578 628.5851 209.0864 625.425 211.176 621.3007 213.49 617.1668 214.8051 610.6844 215.8445 605.338 216.0056 601.6242 215.2418 596.2397 211.5638 592.2395 213.3384 587.4659 214.5688 581.0503 215.6929 577.222 216.1321 570.4913 217.6728 565.3359 217.8458 560.0468 218.0451 556.2757 217.5833 551.7409 217.0439 547.0628 214.0043 549.5546 209.01 551.7886 205.332 554.2231 202.8784 554.4045 199.889 553.6407 195.7229 551.2635 193.3958 548.3135 191.9291 545.2871 188.4647 542.7475 183.77 540.3894 180.9178 538.0504 179.8056 535.0908 176.8889 533.0095 174.0726 529.4389 173.1716 525.1141 172.6835 519.806 172.81 513.0753 173.637 510.4308 174.686 504.0438 177.1276 499.0125 178.654 495.6806 179.1671 489.1886 179.8175 485.5034 180.5669 478.7345 180.1791 474.3047 182.8833 459.4209 182.8463 449.3392 187.3382 442.7899 192.3062 437.7395 196.7719 435.2382 200.8771 431.8012 196.5869 429.5577 194.1452 427.1423 190.7059 426.4071 186.9623 426.5694 182.5324 427.3332 179.7292 429.3095 174.6502 431.8012 170.4936 434.4362 167.0913 437.8732 164.1997 441.5774 162.3715 444.9093 161.0086 449.9597 157.7805 451.5923 155.6921 453.8836 152.8113 453.6449 148.8325 454.4087 145.5818 456.1844 141.4121 455.4588 135.5693 454.1032 133.204 453.1389 129.4616 453.4253 126.9089 454.8478 124.4828 457.8551 122.0924 461.4926 118.9646 466.2375 116.7377 471.4311 113.8963 475.3358 111.1551 477.6462 108.3411 479.9279 104.4101 481.0927 101.7942 481.675 97.4515 481.7419 97.041 481.0736 89.8461 478.3145 84.6883 474.4575 80.6737 470.0181 77.6079 464.9104 74.1137 459.755 70.9369 454.7905 67.9595 450.7426 63.717 449.3392 60.4268 449.6829 55.9958 452.2606 51.4538 455.077 49.1016 457.7501 47.802 460.9102 47.987 464.5858 49.8033 469.3784 52.4157 473.1304 54.306 477.7607 55.6951 481.9901 56.8849 485.5798 56.4708 487.8615 54.3322 488.2243 48.3367 485.7803 44.5334 481.9519 41.0308 478.4481 38.5891 474.6102 35.8372 470.1804 31.1568 467.049 26.0252 465.5405 19.6323 465.5692 13.1486 468.7006 7.4299 473.9992 3.9023 480.1857 1.938 484.5201 1 488.0238 2.6003 491.0598 3.8402 496.0052 5.6542 500.3777 7.2808 505.0462 8.0947 507.8435 7.844 511.4141 8.2056 513.1994 8.9825 514.135 9.3704 516.2163 12.0853 517.8966 15.7776 520.0446 18.1549 522.4505 18.2432 525.4674 17.7288 528.8279 18.9699 531.3484 22.358 532.1217 25.0108 532.599 27.5766 531.5298 31.5816 529.9831 33.923 529.4676 37.3743 533.0382 40.7671 537.1052 36.0365 540.5517 35.2751 543.349 35.5484 546.089 37.2 548.7049 37.6392 550.8816 39.5391 554.7482 40.4795 556.9727 42.4199 559.5599 44.9606 562.0135 47.3987 564.8299 48.5622 568.0472 54.7571 574.2051 55.744 577.8712 57.0591 582.2914 57.9482 584.8405 58.3838 588.0579 58.7716 591.5807 59.6738 593.9102 60.8147 596.8889 62.0152 600.4213 62.8912 603.5241 64.3053 608.0112 66.895 611.1713 69.9488 613.0329 73.0635 613.9113 73.9645 "/>

<polygon id="1803" title="Wat Sing" points=" 407.2749 153.8006 409.7666 155.2159 412.5162 158.419 416.5546 161.147 421.4522 161.4108 424.0586 163.3727 425.2138 167.941 423.4285 172.6584 425.2806 175.4139 427.3332 179.7292 426.5694 182.5324 426.4071 186.9623 427.1423 190.7059 429.5577 194.1452 431.8012 196.5869 435.2382 200.8771 439.0474 203.6422 435.6296 206.9968 434.2739 211.4123 435.515 214.7788 435.9637 219.4974 437.3481 225.8427 439.3434 232.2117 441.2719 236.7024 443.4582 240.9843 445.9882 245.8867 447.6684 250.1184 446.981 253.1448 446.1027 256.0627 441.3483 259.2168 443.2291 262.896 441.1478 266.1587 442.3698 269.0395 439.2575 272.4788 436.0879 272.9812 434.2166 277.1473 433.5102 279.8885 429.72 280.9148 426.7986 281.4519 425.166 286.1454 424.2495 290.5633 423.0275 296.3679 423.7626 299.5578 424.4882 304.8397 424.0395 310.0083 420.6025 313.0001 419.5142 316.6172 421.6909 318.2904 424.4023 322.4946 423.2375 324.9363 420.6885 325.8098 420.2779 329.7564 418.8363 334.0955 417.5857 337.6494 417.6811 340.5672 415.9722 344.1211 412.3443 346.9363 412.1057 351.8781 406.8739 352.766 403.6852 349.3744 405.0218 345.8837 403.6565 341.4551 401.1838 339.4645 398.2529 338.5766 394.3195 337.6005 391.2931 338.0492 387.7893 338.5766 381.8606 339.7008 377.8031 340.4538 373.4974 341.041 369.8981 341.3429 367.2536 340.3023 365.1246 337.7126 362.1268 334.5215 359.6828 332.0309 356.0549 330.7683 351.4341 330.0666 348.9615 325.9996 345.5341 326.2132 339.9108 326.5354 335.3378 326.9746 331.414 328.1011 328.2634 329.0654 325.2084 330.0034 320.9218 331.8054 317.0361 333.7721 311.7184 335.3366 308.4819 337.9263 303.9471 340.7271 299.4218 343.5674 295.918 345.3837 293.8177 347.5747 291.8128 350.6489 287.3161 353.7433 284.2993 355.6945 281.8266 354.1932 279.5257 352.8053 276.6712 351.3769 272.9669 350.3517 269.5777 349.2741 267.1241 348.6357 263.859 345.984 260.9949 343.4814 257.9494 342.0935 256.5937 339.3893 254.0828 336.5228 251.572 334.7089 246.913 332.2195 244.2876 331.7183 240.5165 333.9081 236.8122 336.2985 234.3873 337.3749 231.6759 338.8392 227.0742 340.541 222.9785 343.7452 214.7872 346.7107 211.1879 348.2466 205.7461 346.5341 201.6122 346.3718 196.1991 344.6343 190.7477 343.0423 187.4635 343.1795 183.8452 342.8179 180.1314 343.0172 173.5439 343.5817 166.4027 342.6294 160.0825 341.5422 156.3306 342.0303 153.1991 341.93 150.5928 340.2164 147.4518 336.5861 144.5018 336.2985 139.8619 336.8629 137.5038 335.5598 138.7831 331.9796 140.5111 328.8172 142.4873 326.9006 145.5997 325.5115 149.5331 323.8969 151.9771 322.6223 156.617 320.3179 159.567 316.628 161.1709 314.1243 164.837 310.809 170.2597 305.767 176.704 298.3836 181.8403 292.5026 186.652 288.4212 192.7335 284.3434 197.0678 281.3397 200.7339 278.799 205.7938 275.9838 210.0136 273.9562 215.3123 271.6411 220.8114 268.29 227.0074 265.26 231.7045 262.9568 234.6259 260.2407 237.7001 257.5281 241.1848 254.4349 243.562 250.3189 248.0396 244.4236 250.054 242.2218 254.3979 237.6154 257.472 234.5889 260.4125 231.6866 263.6776 229.597 266.0453 228.6316 268.6516 227.5432 272.165 226.0169 277.3586 224.2029 277.3586 221.2111 277.5304 216.0545 276.4325 209.1353 275.1723 205.4084 273.091 203.1553 272.3368 200.6921 270.4178 197.3483 269.4631 193.3051 267.9833 187.1126 267.3819 182.0193 266.1599 177.0644 265.2815 172.4854 264.4223 169.1678 262.2265 163.7224 260.0116 156.4392 259.391 149.5605 262.5415 148.7705 265.9116 148.8588 268.4321 150.5725 271.7067 149.3099 272.1363 146.1546 275.0386 147.5437 277.0053 145.5674 280.8241 146.5174 283.6405 145.2787 287.0202 145.0292 290.4762 143.7165 292.9871 144.7034 295.8798 143.9277 297.9325 142.3644 302.8396 141.7892 305.3887 144.4409 307.174 146.8682 309.8567 147.5437 312.654 149.2586 315.8141 149.0092 318.3918 148.7705 323.108 149.2992 327.7097 147.7692 330.8793 147.2811 334.6313 146.0663 337.1899 146.2441 340.0254 146.7573 342.9277 145.1056 345.6773 147.3587 348.7896 147.8206 351.4914 148.3313 353.7063 146.6427 356.58 146.2548 359.4823 146.3062 362.3464 146.62 364.2749 148.7705 367.4923 148.8958 370.4041 148.6595 372.3708 151.2002 375.2636 152.3387 376.5906 156.0656 380.3713 158.5073 383.2831 159.4572 386.5482 159.9966 388.8872 158.6039 392.0569 157.2184 395.3124 158.9954 398.167 158.4918 401.1934 157.7936 404.4203 156.8306 407.2749 153.8006 "/>

<polygon id="1804" title="Sapphaya" points=" 716.3607 257.3264 719.3967 277.133 723.1009 279.4231 725.6882 281.0521 725.4304 284.0296 726.0414 287.1061 728.6669 295.6543 731.3018 299.8466 733.3258 303.0747 735.5121 306.0665 738.5194 307.7552 742.3573 309.044 745.1355 310.9713 747.5414 313.5502 751.9044 317.492 756.3342 320.2559 761.7283 322.9469 766.7596 325.9149 768.4494 326.8493 771.0749 328.3267 775.9248 331.3066 780.5265 334.5836 785.6437 337.0622 790.1021 339.6399 789.6725 348.9638 789.5007 354.3054 789.8826 363.1269 799 374.8543 796.8328 376.2911 793.0999 378.5812 790.2358 380.9202 786.9803 383.9001 785.6341 385.0756 781.6148 388.6187 777.9201 390.9196 773.3662 394.9603 768.0007 398.7052 763.7809 402.1194 754.6444 408.6675 754.1479 408.9635 743.2357 414.6344 740.3811 415.971 733.6886 416.6477 731.1014 416.773 727.168 419.1884 723.7119 422.7542 723.6928 424.3307 723.3873 424.7328 721.4588 427.2855 721.7548 428.1972 722.2417 429.7236 722.4422 429.9634 725.0199 434.4553 725.2872 438.3195 724.1129 440.6752 721.2297 440.9974 719.1007 441.3256 716.1602 441.7624 713.7544 443.0882 710.2983 443.4272 707.7111 441.3745 704.5224 440.5726 703.5677 433.978 701.0568 433.2285 698.4218 432.6784 695.1949 432.4779 691.0515 433.1402 686.6025 433.2894 683.347 433.5901 680.4924 432.7154 676.5399 432.4266 672.3679 432.775 669.2651 433.3407 665.5226 432.3788 664.2911 430.0744 663.4032 427.6733 661.7707 424.0311 660.52 419.976 658.2669 415.3588 655.145 412.583 653.1115 410.1533 651.6985 407.3751 650.171 404.1589 649.2736 401.3437 646.4476 398.7434 645.1015 398.1145 643.3257 397.2767 641.34 393.5343 640.538 390.7191 636.9483 386.9396 634.342 384.8882 629.177 383.0241 620.9284 380.3581 611.1522 376.7792 607.5148 376.4916 602.2257 377.4809 598.8938 376.8926 595.0177 376.4426 591.1702 376.7792 588.0674 376.9558 585.6997 374.4891 584.7546 370.7096 585.9384 367.071 582.3392 364.4671 579.1505 363.103 576.019 357.9106 574.6442 353.692 573.3268 349.5629 572.6776 345.3324 570.94 343.3573 568.8683 339.9037 565.6605 336.7734 564.5817 333.9571 565.5555 331.4068 568.8874 330.0285 573.069 329.0272 575.5417 328.1775 572.9544 323.0854 571.1214 321.0315 569.8612 318.0421 570.329 313.8868 566.7202 313.9751 567.9327 311.3461 569.4984 308.2946 571.0259 305.7789 572.7157 301.8635 573.7182 296.8429 574.501 292.252 575.4557 287.908 576.3054 282.977 577.1074 276.8848 577.3652 272.8667 578.3962 263.7087 580.0192 260.255 580.0574 256.8765 581.1649 249.406 579.7233 245.827 583.1602 245.5251 586.7404 244.8747 590.2632 243.7732 594.4162 242.3841 603.0181 241.4569 615.6011 241.7087 624.203 242.297 629.979 243.9355 638.0462 244.3126 650.9729 246.5263 655.2691 246.4882 661.637 248.3284 665.5226 248.9656 669.1314 249.2437 672.6638 249.517 676.2726 250.1053 680.1965 251.1686 683.3852 252.3214 686.698 253.1448 691.4143 253.5208 695.8632 253.9981 703.6345 255.2977 706.6704 255.5125 711.3103 256.6247 716.3607 257.3264 "/>

<polygon id="1805" title="Sankhaburi" points=" 704.5224 440.5726 701.8301 440.8745 701.2955 441.1239 698.9373 442.2386 695.8441 443.778 690.555 446.3533 683.7098 450.0337 681.2944 450.8476 676.96 450.6829 674.3823 451.8357 670.9167 452.0493 667.8139 452.4479 664.1479 451.4479 661.7993 452.5243 658.2669 454.1521 657.57 454.1139 654.0757 452.751 651.5839 451.2593 649.4741 452.6627 647.7938 454.6247 645.9703 458.6308 644.4332 463.2242 642.4856 466.6647 642.8675 470.53 643.6885 474.2462 645.0347 478.941 645.7412 483.458 646.2567 487.4248 647.4214 492.2794 649.5504 494.4705 651.8417 495.7701 654.2762 494.8464 657.1785 492.4059 661.5893 493.6793 664.5393 495.5338 663.871 498.5853 663.1168 501.3265 665.9523 501.9912 669.9525 499.7011 671.6709 501.9136 671.9574 509.2087 675.2988 511.7614 677.8002 514.8272 681.218 512.5777 685.9152 509.5847 690.2304 509.8997 692.8272 511.8748 693.0945 515.554 693.6292 518.0195 694.7175 521.9887 689.3235 524.638 685.8865 527.9305 683.2324 530.7099 682.3732 533.1002 682.3064 536.3403 685.1609 540.4562 687.5382 543.4218 689.9631 546.0365 691.7198 548.3385 693.696 550.4186 696.3501 553.3579 697.7153 555.0716 698.8896 556.7996 700.8277 561.5803 702.1165 565.1831 702.9566 567.6606 704.5415 570.9782 704.6942 573.7922 701.2764 574.7302 698.8037 575.7803 697.9731 578.4094 698.2977 581.0002 697.3143 583.4037 694.4789 585.3429 691.6911 585.2773 688.8366 586.0458 686.297 586.3442 686.2588 589.071 683.4234 591.6225 681.8195 592.9997 677.0555 592.7383 674.4014 592.7276 669.4847 592.1882 667.2125 591.9483 665.3317 591.6631 663.8137 591.3229 661.6084 591.0497 659.508 590.737 643.3639 587.9361 625.7592 584.3154 617.6919 582.7533 611.9159 581.5503 609.2619 581.1362 606.6269 581.6888 604.5074 583.0671 601.7674 584.5791 599.0656 585.7678 594.7408 586.9456 591.0174 588.1211 587.1222 589.7716 584.6114 591.3122 580.277 594.1274 577.9953 595.6645 575.0261 597.3817 571.3601 599.2697 568.1427 601.1087 564.3812 603.0491 562.7773 604.289 561.5934 605.2008 559.4644 606.5791 559.3403 606.6651 558.0228 607.3548 556.5048 609.818 556.1993 610.1927 555.3497 611.1593 553.2398 612.4828 552.8579 612.922 552.2564 613.2466 549.6787 614.9245 549.1632 615.4006 548.3898 616.1393 547.2633 618.1406 546.3277 620.5047 544.0746 623.635 542.7475 626.4239 540.9813 628.702 537.764 628.3882 534.4225 626.0229 532.6754 628.2999 531.4056 629.9396 528.8948 632.1927 525.8397 633.0937 523.7585 631.454 521.0566 630.2534 520.3788 629.3787 519.4814 628.1877 518.7081 626.8261 517.1805 624.598 516.0253 622.8951 515.3857 621.5955 514.8415 619.4163 515.0611 617.6645 515.1375 616.989 515.443 614.8612 515.5384 614.0593 515.3857 612.1212 515.338 611.2333 514.135 609.232 512.9894 608.0279 510.3067 605.5266 509.7625 604.9132 506.2396 601.1719 503.4901 597.9546 498.9457 593.0116 497.4372 591.2239 496.1579 590.6737 492.6542 589.6212 489.9141 588.9481 475.6604 584.6782 462.3995 580.9131 450.8858 577.3831 456.9673 570.7264 462.1704 566.0722 461.9795 559.2759 465.4355 555.759 466.3043 551.7075 466.8771 549.1274 469.3116 546.1511 472.5481 543.2476 476.0518 538.918 474.7821 535.7901 474.2665 532.3842 474.2474 526.1297 475.0303 521.7858 476.6247 518.1066 477.3598 515.2819 469.7317 513.1899 462.8005 510.963 460.1655 509.7613 457.0627 503.1428 456.0126 499.4242 456.0126 494.4955 455.8407 482.7455 460.4806 481.1798 463.4593 476.4504 463.1633 471.7712 464.1848 469.1302 464.6622 462.7611 462.8101 457.8038 461.3589 453.1126 460.5092 450.3726 462.3041 445.8915 458.8385 442.7362 456.3467 441.7886 452.862 440.9974 449.005 440.4473 445.5299 436.0067 442.4367 432.213 441.7111 428.9729 440.6227 425.7568 440.0594 423.0156 440.2122 420.4629 441.7015 417.9115 444.2983 414.434 446.8378 413.1451 450.924 410.6521 455.4302 408.6138 458.1416 410.0411 464.4808 409.5769 468.9011 408.9635 472.6817 410.2643 475.5267 411.3312 476.7106 409.0267 477.7226 406.4884 481.1022 404.5981 484.4341 404.0587 486.544 402.5443 489.179 402.0813 492.7401 402.3951 497.1795 403.6195 501.0747 403.7078 504.0915 404.4465 508.6359 404.4716 512.6266 404.5337 517.2283 404.8976 520.9994 404.6232 523.6248 402.2817 526.1261 400.0656 529.4676 397.0655 528.9139 394.2372 530.5273 390.1689 533.2196 387.9278 538.2891 386.7153 541.1532 385.9658 544.9625 387.479 548.9913 387.6795 551.254 385.3894 554.1945 382.3976 563.8943 371.5223 570.6631 364.9802 576.019 357.9106 579.1505 363.103 582.3392 364.4671 585.9384 367.071 584.7546 370.7096 585.6997 374.4891 588.0674 376.9558 591.1702 376.7792 595.0177 376.4426 598.8938 376.8926 602.2257 377.4809 607.5148 376.4916 611.1522 376.7792 620.9284 380.3581 629.177 383.0241 634.342 384.8882 636.9483 386.9396 640.538 390.7191 641.34 393.5343 643.3257 397.2767 645.1015 398.1145 646.4476 398.7434 649.2736 401.3437 650.171 404.1589 651.6985 407.3751 653.1115 410.1533 655.145 412.583 658.2669 415.3588 660.52 419.976 661.7707 424.0311 663.4032 427.6733 664.2911 430.0744 665.5226 432.3788 669.2651 433.3407 672.3679 432.775 676.5399 432.4266 680.4924 432.7154 683.347 433.5901 686.6025 433.2894 691.0515 433.1402 695.1949 432.4779 698.4218 432.6784 701.0568 433.2285 703.5677 433.978 704.5224 440.5726 "/>

<polygon id="1806" title="Hankha" points=" 412.1057 351.8781 410.9409 356.333 410.2153 359.0598 410.0912 364.053 408.1532 366.9063 409.7475 372.6119 412.4875 374.5893 412.3825 378.5919 412.4685 383.4239 415.8863 389.9923 418.0248 391.7692 418.569 394.5128 423.944 395.0868 426.5313 396.7767 429.4622 398.9761 432.2595 401.1182 435.5532 404.5718 438.1214 408.4515 441.8638 411.8049 444.2983 414.434 441.7015 417.9115 440.2122 420.4629 440.0594 423.0156 440.6227 425.7568 441.7111 428.9729 442.4367 432.213 445.5299 436.0067 449.005 440.4473 452.862 440.9974 456.3467 441.7886 458.8385 442.7362 462.3041 445.8915 460.5092 450.3726 461.3589 453.1126 462.8101 457.8038 464.6622 462.7611 464.1848 469.1302 463.1633 471.7712 463.4593 476.4504 460.4806 481.1798 455.8407 482.7455 456.0126 494.4955 456.0126 499.4242 457.0627 503.1428 460.1655 509.7613 462.8005 510.963 469.7317 513.1899 477.3598 515.2819 476.6247 518.1066 475.0303 521.7858 474.2474 526.1297 474.2665 532.3842 474.7821 535.7901 476.0518 538.918 472.5481 543.2476 469.3116 546.1511 466.8771 549.1274 466.3043 551.7075 465.4355 555.759 461.9795 559.2759 462.1704 566.0722 456.9673 570.7264 450.8858 577.3831 445.8259 578.8712 442.9236 580.7114 439.6585 582.2628 436.4411 582.2151 434.3026 581.0253 431.9158 579.3235 428.6221 577.6229 425.0037 576.9212 422.2637 576.4964 418.1108 575.5059 414.9984 574.6908 410.0149 573.1048 407.103 572.6286 404.573 573.7922 403.2269 576.7219 402.1194 579.6624 402.0049 583.1161 403.6183 586.3931 404.4107 587.7333 404.974 588.6963 406.8643 591.0735 407.8763 592.7276 410.0626 594.5152 412.3921 596.1657 412.5639 596.5165 413.805 599.0441 413.8528 599.3091 414.0151 602.0992 412.0675 604.7389 411.5042 607.905 412.0675 610.9457 412.1057 611.1593 411.8765 611.6618 409.0506 617.853 409.2606 621.031 409.1652 625.5098 405.184 627.3643 403.7329 628.0373 403.1983 628.2772 402.0526 628.7653 400.9452 629.2785 398.9021 630.0792 397.0022 630.516 394.4341 631.0912 392.0855 631.3179 389.756 631.2404 387.1401 631.1175 382.1947 631.1556 378.9392 631.2284 376.2183 631.8192 373.4401 633.0197 370.6237 635.1845 367.8551 636.8731 364.399 637.4125 361.3822 636.8218 358.1744 636.4853 357.8784 636.4853 355.8926 636.6357 353.9927 636.7991 350.384 637.4388 345.0185 637.6369 341.4002 638.6131 337.3713 638.3243 335.1087 640.5261 330.8507 642.2923 327.8338 640.5631 324.4255 640.939 320.4826 644.117 311.7661 644.7674 310.2577 641.8042 305.5892 640.0272 308.5774 636.5963 312.148 632.5961 313.8951 626.511 313.3128 619.5548 313.1695 613.9495 312.444 606.6651 310.1145 600.2077 307.7277 594.8279 306.2479 588.4338 306.1429 582.2771 306.3243 579.0228 303.422 576.2935 300.3574 573.5929 301.1307 568.3742 302.4387 563.7427 304.1858 559.1386 306.0856 556.438 302.8969 552.7588 299.8991 551.2301 297.6651 549.7157 292.9871 544.7727 291.3641 541.8072 291.345 537.8654 285.6454 537.8165 281.7597 537.0408 276.948 535.3247 271.1243 534.1755 268.4989 533.9499 264.871 530.7576 260.7276 530.8961 257.7871 530.9211 252.9276 529.1955 247.8677 527.7074 244.2589 526.4292 241.6239 527.6047 235.9052 527.8434 231.8668 527.1429 228.7163 525.2394 226.3009 523.0746 221.4606 518.3321 217.3267 515.98 212.3336 514.0396 204.5814 510.3365 199.34 505.5451 193.3158 500.151 186.0219 493.3427 178.8998 486.5238 175.3865 482.4567 171.1189 479.126 162.813 467.7531 157.1325 458.3552 149.9627 447.4059 143.4516 438.3601 137.0455 430.6389 131.1741 424.5562 124.4148 417.3112 117.0349 409.528 113.7984 405.5349 113.3593 402.8319 110.6002 401.5192 109.2731 397.0655 107.1728 394.6501 104.2705 390.6594 100.7094 387.2654 99.2296 384.1638 96.6424 380.4321 95.0576 377.932 92.1457 374.8149 90.2459 372.199 87.038 368.4088 84.7277 366.4182 81.8826 364.5673 79.5054 362.9527 77.7392 360.1995 75.9253 356.3962 74.1018 351.8411 71.9823 349.2514 69.5574 347.5234 73.8727 345.1343 77.6628 346.0973 82.9233 346.5079 88.5942 346.9112 92.8427 348.0366 98.4181 348.2466 101.7596 347.6857 106.6763 346.811 109.9605 346.5341 113.1206 347.0473 115.6792 346.1856 117.6936 344.5316 120.2618 343.3573 122.8872 342.1783 128.3386 338.3762 131.9283 337.6386 134.7256 337.7496 137.5038 335.5598 139.8619 336.8629 144.5018 336.2985 147.4518 336.5861 150.5928 340.2164 153.1991 341.93 156.3306 342.0303 160.0825 341.5422 166.4027 342.6294 173.5439 343.5817 180.1314 343.0172 183.8452 342.8179 187.4635 343.1795 190.7477 343.0423 196.1991 344.6343 201.6122 346.3718 205.7461 346.5341 211.1879 348.2466 214.7872 346.7107 222.9785 343.7452 227.0742 340.541 231.6759 338.8392 234.3873 337.3749 236.8122 336.2985 240.5165 333.9081 244.2876 331.7183 246.913 332.2195 251.572 334.7089 254.0828 336.5228 256.5937 339.3893 257.9494 342.0935 260.9949 343.4814 263.859 345.984 267.1241 348.6357 269.5777 349.2741 272.9669 350.3517 276.6712 351.3769 279.5257 352.8053 281.8266 354.1932 284.2993 355.6945 287.3161 353.7433 291.8128 350.6489 293.8177 347.5747 295.918 345.3837 299.4218 343.5674 303.9471 340.7271 308.4819 337.9263 311.7184 335.3366 317.0361 333.7721 320.9218 331.8054 325.2084 330.0034 328.2634 329.0654 331.414 328.1011 335.3378 326.9746 339.9108 326.5354 345.5341 326.2132 348.9615 325.9996 351.4341 330.0666 356.0549 330.7683 359.6828 332.0309 362.1268 334.5215 365.1246 337.7126 367.2536 340.3023 369.8981 341.3429 373.4974 341.041 377.8031 340.4538 381.8606 339.7008 387.7893 338.5766 391.2931 338.0492 394.3195 337.6005 398.2529 338.5766 401.1838 339.4645 403.6565 341.4551 405.0218 345.8837 403.6852 349.3744 406.8739 352.766 412.1057 351.8781 "/>

<polygon id="1807" title="Nong Mamong" points=" 203.9417 149.0092 203.1302 152.1501 203.6744 154.6539 203.5312 157.4798 208.2474 163.2247 210.8824 164.1997 213.5651 162.449 218.7492 158.53 221.6992 159.5085 225.8808 158.4703 228.5063 157.7292 230.893 155.9546 234.4636 156.0036 238.1202 155.7028 242.8937 153.2874 245.8724 152.5893 249.4525 151.2229 253.4432 149.6977 259.391 149.5605 260.0116 156.4392 262.2265 163.7224 264.4223 169.1678 265.2815 172.4854 266.1599 177.0644 267.3819 182.0193 267.9833 187.1126 269.4631 193.3051 270.4178 197.3483 272.3368 200.6921 273.091 203.1553 275.1723 205.4084 276.4325 209.1353 277.5304 216.0545 277.3586 221.2111 277.3586 224.2029 272.165 226.0169 268.6516 227.5432 266.0453 228.6316 263.6776 229.597 260.4125 231.6866 257.472 234.5889 254.3979 237.6154 250.054 242.2218 248.0396 244.4236 243.562 250.3189 241.1848 254.4349 237.7001 257.5281 234.6259 260.2407 231.7045 262.9568 227.0074 265.26 220.8114 268.29 215.3123 271.6411 210.0136 273.9562 205.7938 275.9838 200.7339 278.799 197.0678 281.3397 192.7335 284.3434 186.652 288.4212 181.8403 292.5026 176.704 298.3836 170.2597 305.767 164.837 310.809 161.1709 314.1243 159.567 316.628 156.617 320.3179 151.9771 322.6223 149.5331 323.8969 145.5997 325.5115 142.4873 326.9006 140.5111 328.8172 138.7831 331.9796 137.5038 335.5598 134.7256 337.7496 131.9283 337.6386 128.3386 338.3762 122.8872 342.1783 120.2618 343.3573 117.6936 344.5316 115.6792 346.1856 113.1206 347.0473 109.9605 346.5341 106.6763 346.811 101.7596 347.6857 98.4181 348.2466 92.8427 348.0366 88.5942 346.9112 82.9233 346.5079 77.6628 346.0973 73.8727 345.1343 69.5574 347.5234 64.2301 343.781 62.1298 341.2403 58.8551 336.8224 57.299 334.0478 54.5303 331.2552 51.6185 328.6549 49.2508 326.3874 47.8378 324.274 45.9475 321.8323 43.5417 320.6688 40.964 318.2904 43.4939 314.962 53.0696 307.8304 55.6187 304.7622 53.0696 300.9875 49.499 298.0064 49.2604 295.1029 47.1695 292.3999 43.9522 289.1086 40.7635 287.4713 38.2144 286.6216 35.6558 283.5928 33.6318 280.2644 30.5004 275.8442 27.1494 271.98 23.8079 267.9356 20.982 260.9543 18.2515 260.0295 13.583 252.9085 11.645 249.0921 9.9456 244.6372 8.819 240.094 7.788 236.9542 7.6638 233.1247 8.609 228.6948 10.1174 225.3032 12.5519 222.8652 18.137 218.6728 20.6669 216.3935 17.8983 212.6892 15.9125 211.0889 12.1796 206.5576 8.7904 203.2436 7.6257 200.8509 8.4276 198.3376 11.6545 195.5594 13.0961 193.3325 12.3324 190.2035 10.2988 188.6127 6.9765 187.2749 7.0146 183.4704 5.6781 180.4416 7.3583 175.8495 10.6998 173.2097 13.0579 171.0581 16.1416 168.1558 18.8625 165.9027 20.9438 164.2367 23.1683 161.9454 25.8032 159.3832 29.0683 157.2077 32.5721 155.8401 35.9995 154.9641 39.1882 154.0524 42.4915 153.3137 45.0597 152.4115 49.0026 154.2398 52.8405 152.501 55.2559 150.5212 57.8813 149.7228 61.6238 148.7955 65.2899 146.9195 69.2328 144.8657 72.7366 142.664 76.5649 138.9848 78.818 134.7554 83.6202 133.7924 84.9472 130.9628 88.3937 126.9602 90.9714 125.595 97.7976 127.4746 100.0889 126.0342 103.0962 125.8838 106.6763 126.3719 110.1228 126.4471 116.5575 126.422 119.1543 126.9352 122.238 128.5343 124.8539 128.3243 127.2789 130.7373 129.933 129.4735 133.2649 131.7051 136.635 132.34 140.2438 132.8532 145.8193 134.2673 148.7216 136.3068 152.3685 136.3581 154.9749 136.6815 157.6003 136.7328 161.4287 137.1827 164.5697 135.9452 167.176 134.8067 169.6678 134.1683 171.7968 136.9465 174.5368 137.9835 176.9331 140.4252 181.5061 141.1758 184.418 140.9359 186.4324 142.4766 189.0101 142.3024 192.5903 141.5625 195.378 142.9408 198.0989 143.4289 200.5621 144.3896 202.5669 146.5054 203.9417 149.0092 "/>

<polygon id="1808" title="Noen Kham" points=" 305.5892 640.0272 301.083 639.3876 296.9587 636.0962 292.9871 634.62 290.5717 635.4327 285.569 635.7836 281.1105 637.2359 276.3848 638.0987 272.6137 639.0487 268.0311 636.7991 264.3555 636.8361 260.7944 636.348 255.9254 634.885 252.3357 634.2572 240.0296 630.578 229.9861 628.9276 222.6444 630.3799 209.9945 632.244 207.3787 631.38 200.8676 628.4646 198.9963 627.1876 197.3447 626.0742 196.6 620.2171 196.5809 613.9363 192.6762 609.8562 188.676 609.0172 184.4848 606.8035 179.4631 603.0742 173.0665 598.1312 169.3814 598.6921 166.8228 597.692 162.6889 597.8937 159.6911 599.3317 154.6407 600.759 148.5306 602.5348 140.7975 602.9226 132.377 601.4965 128.625 600.8235 124.1665 599.7602 122.2762 597.408 118.2378 596.3292 110.2947 595.0021 106.5904 596.1299 102.5902 594.378 98.4181 593.9758 94.7903 591.6631 90.4845 590.0973 87.544 588.7226 85.5392 585.9193 79.935 583.1781 73.739 583.591 69.2614 581.3009 64.6311 576.0823 62.5785 571.4663 58.5974 570.8397 50.7401 572.2288 43.5035 573.9187 39.1787 573.7289 34.6056 572.1895 32.0184 569.8994 28.5242 568.9244 22.1849 569.1117 19.5308 569.212 13.9363 569.8874 8.6663 570.4268 5.5635 566.5853 5.0002 564.1067 4.3892 561.4657 3.0526 557.9118 3.0622 554.7327 1 552.1418 3.9214 551.4437 6.5946 551.0308 9.7546 550.3291 11.1676 547.8385 10.948 544.1712 10.2606 540.9694 10.5661 537.7294 12.5233 535.8152 14.5664 533.8986 16.1225 531.0942 16.9245 527.2419 18.051 521.3108 21.7362 520.0351 27.3117 517.6829 30.5959 516.7557 37.212 515.2926 42.0332 511.7244 45.4988 509.5489 48.5252 508.3077 50.6924 506.2456 52.1818 503.8302 54.158 502.1785 57.1367 499.9374 61.0605 497.8239 65.0034 495.6591 68.975 494.4442 71.9155 494.1674 75.152 492.8188 78.7798 491.5539 77.5292 488.5012 75.3811 486.1228 77.2046 482.9818 80.4315 481.4936 82.9901 480.8433 84.0212 478.3634 85.9592 474.3346 86.1311 470.7186 84.4412 466.3007 83.0856 463.2242 81.0711 460.7336 77.2428 458.9196 74.14 455.8908 72.2497 454.0136 76.7177 448.1565 82.761 442.9773 88.4796 437.5319 92.6804 433.5651 95.6495 428.3237 100.0507 420.9773 102.9052 419.1621 106.9341 411.6928 113.7984 405.5349 117.0349 409.528 124.4148 417.3112 131.1741 424.5562 137.0455 430.6389 143.4516 438.3601 149.9627 447.4059 157.1325 458.3552 162.813 467.7531 171.1189 479.126 175.3865 482.4567 178.8998 486.5238 186.0219 493.3427 193.3158 500.151 199.34 505.5451 204.5814 510.3365 212.3336 514.0396 217.3267 515.98 221.4606 518.3321 226.3009 523.0746 228.7163 525.2394 231.8668 527.1429 235.9052 527.8434 241.6239 527.6047 244.2589 526.4292 247.8677 527.7074 252.9276 529.1955 257.7871 530.9211 260.7276 530.8961 264.871 530.7576 268.4989 533.9499 271.1243 534.1755 276.948 535.3247 281.7597 537.0408 285.6454 537.8165 291.345 537.8654 291.3641 541.8072 292.9871 544.7727 297.6651 549.7157 299.8991 551.2301 302.8969 552.7588 306.0856 556.438 304.1858 559.1386 302.4387 563.7427 301.1307 568.3742 300.3574 573.5929 303.422 576.2935 306.3243 579.0228 306.1429 582.2771 306.2479 588.4338 307.7277 594.8279 310.1145 600.2077 312.444 606.6651 313.1695 613.9495 313.3128 619.5548 313.8951 626.511 312.148 632.5961 308.5774 636.5963 305.5892 640.0272 "/>

</svg>